<?xml version="1.0" encoding="utf-8"?>
<!-- Generator: Adobe Illustrator 12.0.0, SVG Export Plug-In . SVG Version: 6.00 Build 51448)  -->
<!DOCTYPE svg PUBLIC "-//W3C//DTD SVG 1.1//EN" "http://www.w3.org/Graphics/SVG/1.1/DTD/svg11.dtd" [
	<!ENTITY ns_svg "http://www.w3.org/2000/svg">
	<!ENTITY ns_xlink "http://www.w3.org/1999/xlink">
]>
<svg  version="1.1" id="Layer_1" xmlns="&ns_svg;" xmlns:xlink="&ns_xlink;" width="159.154" height="138.643"
	 viewBox="0 0 159.154 138.643" overflow="visible" enable-background="new 0 0 159.154 138.643" xml:space="preserve">
<g>
	<path fill="#055675" d="M141.761,98.399c0-19.479-11.097-24.543-25.536-21.052c-13.481,3.262-14.363-29.452,5.473-29.452
		c20.685,0,37.457,20.312,37.457,45.373c0,25.059-16.772,45.374-37.457,45.374c-8.229,0-15.838-3.229-22.021-8.677
		c3.909,2.357,8.31,3.693,12.972,3.693C128.726,133.659,141.761,117.87,141.761,98.399z"/>
	<g>
		
			<linearGradient id="XMLID_2_" gradientUnits="userSpaceOnUse" x1="-340.1953" y1="82.8633" x2="-418.8746" y2="39.0186" gradientTransform="matrix(-1 0 0 1 -281.916 0)">
			<stop  offset="0" style="stop-color:#098140"/>
			<stop  offset="1" style="stop-color:#AFD037"/>
		</linearGradient>
		<path fill="url(#XMLID_2_)" d="M115.13,89.475c-27.589,21.783-43.646,12.221-43.646,12.221s11.908-3.198,23.241-15.084
			c4.253-4.489,8.451-10.201,11.855-17.448c0,0-0.703,0.773-1.954,2.088c-8.43,8.866-41.925,41.758-57.432,22.213
			c0,0,12.099-3.076,22.568-14.083c2.071-2.173,4.108-4.722,5.965-7.578c0,0-22.535,19.799-47.647,16.688
			C11.837,86.479,5.405,76.713,0,66.952c12.747,16.035,46.749,0.962,60.821-5.284c19.504-8.667,51.986-33.76,86.342-2.497
			c3.421,3.117,7.268,10.763,9.397,17.313C146.438,72.386,136.604,72.521,115.13,89.475z"/>
		<path fill="#055675" d="M146.436,54.964c-25.015-23.61-49.288-16.182-64.35-12.625c-15.069,3.589-24.922-13.145-24.922-13.145
			c21.269,13.294,42.905,0.383,42.905,0.383s-11.724,4.799-31.064-0.899C49.974,23.084,45.022,10.215,40.669,0
			c17.675,23.757,38.953,12.196,64.569,12.486c15.076,0.167,27.59,13.553,27.59,13.553C144.81,40.041,146.436,54.964,146.436,54.964
			z"/>
	</g>
</g>
</svg>
